/* XPM */
static char *YWdyZWVk[] = {
/* columns rows colors chars-per-pixel */
"64 64 249 2 ",
"   c #010101",
".  c #040805",
"X  c #030309",
"o  c #060B0A",
"O  c #0A0B0B",
"+  c #0A0508",
"@  c #070912",
"#  c #0D1513",
"$  c #141414",
"%  c #1C1B1B",
"&  c #181818",
"*  c #10100D",
"=  c #221B1A",
"-  c #1E201D",
";  c #23221E",
":  c #1C1A21",
">  c #301E2F",
",  c #1D2120",
"<  c #242424",
"1  c #2A2927",
"2  c #2B2B2B",
"3  c #292727",
"4  c #352A28",
"5  c #31312E",
"6  c #2E2E30",
"7  c #333333",
"8  c #3C3B3B",
"9  c #383838",
"0  c #2F3030",
"q  c #443D3A",
"w  c #4B382E",
"e  c #514529",
"r  c #574837",
"t  c #524A37",
"y  c #655539",
"u  c #604E3A",
"i  c #6D6139",
"p  c #3E3B44",
"a  c #3D4245",
"s  c #454545",
"d  c #4B4B4B",
"f  c #484847",
"g  c #564C45",
"h  c #58544B",
"j  c #545454",
"k  c #5B5B5B",
"l  c #595755",
"z  c #485657",
"x  c #63554C",
"c  c #6B5C4A",
"v  c #685A46",
"b  c #725C49",
"n  c #615A56",
"m  c #685D58",
"M  c #5F615E",
"N  c #6A614A",
"B  c #7C6C4C",
"V  c #766649",
"C  c #64625E",
"Z  c #6B6358",
"A  c #7B6D5D",
"S  c #776956",
"D  c #7C715A",
"F  c #7F7049",
"G  c #5C5961",
"H  c #7C5A76",
"J  c #5F6160",
"K  c #656463",
"L  c #6C6B6B",
"P  c #696766",
"I  c #756C63",
"U  c #736D6A",
"Y  c #796A65",
"T  c #777267",
"R  c #747373",
"E  c #7B7B7A",
"W  c #7B7675",
"Q  c #717072",
"!  c #846B48",
"~  c #87744C",
"^  c #826E59",
"/  c #837354",
"(  c #84745B",
")  c #8B745D",
"_  c #8C7A5C",
"`  c #887957",
"'  c #927B54",
"]  c #927C5C",
"[  c #91775A",
"{  c #90784F",
"}  c #837462",
"|  c #8C7C63",
" . c #857969",
".. c #937D64",
"X. c #907B6A",
"o. c #857B77",
"O. c #987F78",
"+. c #855B73",
"@. c #77807F",
"#. c #97855B",
"$. c #8D825A",
"%. c #A28B5B",
"&. c #8C816B",
"*. c #938264",
"=. c #9B8565",
"-. c #93846B",
";. c #9C8C6B",
":. c #988968",
">. c #9E9069",
",. c #898477",
"<. c #948372",
"1. c #9C8B75",
"2. c #938B7D",
"3. c #958879",
"4. c #A38C6B",
"5. c #A58D65",
"6. c #A4946D",
"7. c #A99469",
"8. c #B29A6C",
"9. c #A48D73",
"0. c #A18F79",
"q. c #A39373",
"w. c #AD9575",
"e. c #AC9C74",
"r. c #AD9C7B",
"t. c #A8957B",
"y. c #B39D7C",
"u. c #B39A74",
"i. c #B5A26E",
"p. c #ACA074",
"a. c #B4A37C",
"s. c #B9A47B",
"d. c #B9A878",
"f. c #C5AC7D",
"g. c #CEBA7B",
"h. c #897D81",
"j. c #7B8586",
"k. c #8A8785",
"l. c #948B89",
"z. c #978986",
"x. c #9B928B",
"c. c #999288",
"v. c #9B9694",
"b. c #8C8690",
"n. c #A69886",
"m. c #A39A94",
"M. c #A69998",
"N. c #AF998B",
"B. c #ACA283",
"V. c #B4A284",
"C. c #BAA483",
"Z. c #BBAB84",
"A. c #BAA98B",
"S. c #A9A199",
"D. c #B5A699",
"F. c #BEB280",
"G. c #AAA3A3",
"H. c #B7AAA6",
"J. c #BCB4B4",
"K. c #BEB4A9",
"L. c #AB9AA2",
"P. c #C2AD84",
"I. c #C2AD8B",
"U. c #C3A783",
"Y. c #C4B484",
"T. c #C9B58C",
"R. c #CABA8C",
"E. c #C8B788",
"W. c #D4BB8B",
"Q. c #C4B394",
"!. c #CDBB94",
"~. c #CCB797",
"^. c #D3BC93",
"/. c #D5BB98",
"(. c #C1AC93",
"). c #C9BBAA",
"_. c #C4B9B3",
"`. c #C7BAB9",
"'. c #D2BFA1",
"]. c #D6C38D",
"[. c #CEC19A",
"{. c #D3C394",
"}. c #D4C29B",
"|. c #DCC59C",
" X c #DDCB9C",
".X c #DCC593",
"XX c #DED298",
"oX c #E4CB95",
"OX c #E1C59B",
"+X c #E5CC9C",
"@X c #E9CD9E",
"#X c #E5C994",
"$X c #E5D19C",
"%X c #EAD39D",
"&X c #E9D295",
"*X c #ECD195",
"=X c #F6E49C",
"-X c #DAC6A4",
";X c #CCC2BD",
":X c #C7C1B9",
">X c #D3C6BD",
",X c #DFD2B1",
"<X c #E5CDA2",
"1X c #E9CEA2",
"2X c #EACDAA",
"3X c #E4CEAC",
"4X c #E6D1A3",
"5X c #EBD3A4",
"6X c #ECD4AB",
"7X c #ECD9AC",
"8X c #E7D6A8",
"9X c #F3DAA3",
"0X c #F2DBAB",
"qX c #F7D8A8",
"wX c #EED9B1",
"eX c #F3DDB3",
"rX c #F5D8B6",
"tX c #F6E2AA",
"yX c #FBE3B7",
"uX c #EEE2BA",
"iX c #C8BFC0",
"pX c #DACCC4",
"aX c #D5C9C5",
"sX c #D9CFCB",
"dX c #E5D8CD",
"fX c #E5DAD3",
"gX c #ECDDD4",
"hX c #ECDED9",
"jX c #E3D5D4",
"kX c #F1DED8",
"lX c #E1CED0",
"zX c #EDE0D4",
"xX c #EEE1DB",
"cX c #F1E3D6",
"vX c #F3E3DC",
"bX c #F5E9DD",
"nX c #F9EADC",
"mX c #EDE5CB",
"MX c #EDE2E2",
"NX c #F4E4E2",
"BX c #F6EAE3",
"VX c #F9EBE4",
"CX c #FBEDEA",
"ZX c #F7E8E7",
"AX c #FEF2EB",
"SX c #FEF3E5",
"DX c #FCECF2",
"FX c #FEF4F2",
"GX c #FFFCF9",
/* pixels */
"                  X         X X   .     . X . X +                 X X X     + + X           .                                   ",
"                        +             O           & # $ o @ # O o * # & &         +   . + .                                     ",
"                      X         +         O s z p l.h.W } X.} Y D T W L R 8 k 9 # X                                             ",
"                  +       +   X X . = k d E o.n.d.f.E.^.4.u..X%X%Xd.B / S h A W k.j %         X                                 ",
"                X     + .     s l Q ,.,.y.f.^.8.` u.I.W.U.%.! <.Z.W.W.4.4.R.i.! ( -.c.8 X o                                     ",
"                  + X   : l Q m.Y ) F.6.q.y..X#XW.I.w.[ 5.d.d.}.8.| t.f.T.) t..XY.] | 2.2     X                                 ",
"                      8 x. .V q.W.u.) =.P.8.~ X.C.&X=X*XOXw.{ #./.9Xg.' =.|.e.~ 7.{._ 1.3.9 X                                   ",
"                    ,.&.B.-Xs.7._ T.qX8.~ ^.qXf.#.` 4.~.+XqX<Xu.` =.5X9Xu.! ^.@Xw.[ _ F ;.c.& X                                 ",
"              . . q o.) w.E.9X9XW.[ 4.=X]./ 4.%XqXW.w.) [ 8.oX9X+X8.~ 7.7X-XB Y.yX%Xf.e | &.G                                   ",
"                : v.V.$Xi.{ ' +X9X#X4.X.OXqX5.B p.9X9X%X^.4._ V.1XqX#X7.{ i..X{ 5.^.qX] c F m.% X   + X       .                 ",
"            +   E  .( 5.d.3XU.! T.*XqXu.^ w.9XoX] [ C.OXqXqX.X#.' w./.<X-Xw.] I.y.] d.<X( y Z o                                 ",
"                f T m *.u.#.W.-X] 4./.=X].7.4.W.yXY.=.#.5.E.%X#Xd.:._ #.6.*.e.i } :.y 1.-.e l 7   O                             ",
"                j T Y u q.R.] 9.OXw.` 8..X]  .v ^ S $.` v x  .c -.;.:.3.^ t.A.Y 1.}.r.( _ 1.I M $                               ",
"          .   < Q G.bXn.m r a.{ h N.9.b g 4 g q.B V -X|.|.I.a.[.eX7X6X6XyXeX0X0X6X6XeXtXrXyX^.Y j   .                           ",
"          . . j @.dXBXNXjXm.t :.<._.kXpX`.Z (.tX0X2X3XrX5XqX5X5XoX2X5X+XoX2X-X@X@X@X+XOX2X.X9X9.s     .                         ",
"              L S.bXkXVXVXAXxXh.S } gXBXCX<.{.#X#X+X5X8X<X<X+X@X X$X$X5X8X$X5X<X2X&X6X6X+X+X4X^.U 8                             ",
"      X X X f Q `.nXsX:X;XaXjXAXK.I ).nXNX .!.@X+X8X3X5X+X+X+X#X@X+X$X5X6X6X6X2X6X5X<X5X8X+X+X0X1.C X                           ",
"            K U M.,. .o.o.h.z.z.m.z.>XVXCXo.Z.0XoX@X5X+X&X.X<X<X@X5X+X<X+X<X1X5X8X6X<X4X7X5X4X5X~.T a   +                       ",
"          8 n `.>XlXxXAXBXgXkXpX;XbX>XaXAXS.| eX@X@X<XoX&X0XeX<X<X6X<X5X<X+X+X@X<X5X5X<X5X9X5X<XwX,.d     X                     ",
".         h l.AXCXCXCXgXhXBXVXBXNXnXD.z.AXjXS -X6X2X0X0XI.1.A.tX6X2X6X5X1X%XOX+X<X5X<X+X5X6X4X+X0Xn.2     X                     ",
"    +   $ U x.x.H.>XD. .,.&.K.xXCXbX>Xk.bXCXz.r.0X6Xa.B z.L.g e.eX5X6X<X+X1X1X1X5X5X<X+X@X+X<X2X9Xt.5 . +                       ",
"  +     < M n I S S v <.n.2.c N H.VXgX,.NXBXG.&.0X-.4 v.ZXGXjXN OX<X5X+X+X@X1X1X6X<X1X+X+XOX<X6XtX-.M $                         ",
"          R h P 3.Y j v.v.l.c.W g k.>X;XvXvXpXI Q.Z iXJ.,.m.NXo.u.6X<X@X+X+X1XoX5X@X1X@X@X1X5X6XyX&.U ,   +                     ",
"  X     . - ,.v.fXhXM.< j s v.v.).k.z.zXNXnXpXo.Q.Y _.mXsXH.M.M.` rX|.5X@X+X@X+X8X5X@X1X@X5X6X6XyX-.C -                         ",
"      . X j ,.hXk.;XJ.: K j.J.C n.x.h.jXvXgXhXZ w.X.u H.c.G.M.o.3.8X%X@X@X<X2X5X1X@X0X<X<X3X6X8XyX*.L &                         ",
"      X & d S.hXA xX`.8 j f Q `.CXCXkXhXNXcXAXn =.Q.N t H.G.m.z.c.3X+X5X+X<X6X5X1X5XOX5X6X6X8X3XeX .6   O                       ",
"  O +   K ,.jX_.n.CXfX>XaXsXCXZXNXdXcXvXgXgXVXU ..e.uXI >XFXaXW n.7X X2X+X+X2X#X5X8X+X5X6XqX<XeX-XT k X       X                 ",
".   X   L v.AX ._.bXvXAXkXnXfXvXvXNXNXkXzXAXK.t A.#.q.} H.AXc.l.3.wX+X<X5X5X1X5X+X4X4X+X5X@X6XuX2.k O   +                       ",
"      % k.`.xXH.hXhXxXgXgXvXcXxXgXvXgXnXlXo.<.{.e 6.I.u K.ZXS.M.0.5X+X1X+X+X+X1X%XOX@X9X+X+XyXF.U 8   o                         ",
"    X j ,.hXvXBXMXxXBXvXBXcXkXxXnXkXkXjXY x ` a.a._ C./ H.CXfX} -X5X+X2X@X%X5X@X@X@X1XOX1XyX).T k.                              ",
"+   $ ,.M.NXhXgXvX>Xz.aXvXkXNXvXgXgXCX_.r }.e.b T.|.9.:.S.ZXh V.wX#X#X2X4X5X6X+X4X6XqXuXyXA.W k.      O     .                   ",
"    % U aXZXvXBXVXgX).o.pXgXvXgXVXNXpXA r.:.-Xy.#.-Xn.' Z E x 7XqX9XyXyX0X0XeXrX<XT.A.I.n. .k.@   +   X X                       ",
"    o L R G.;X .O.M.xXo.`.l.2.B.D.AX2.N 8X] N.=XOX5X-X| w L.`.` :.1.-._ S  .&.3.<.z.H.k.f L O                                   ",
"  .     l.Z A <.Y h l M.DX} B 3.1.x.&.| ].&X( r.=.T.p.q.y U ZXD.,.z.z.x.H.;XaXaXfXvXFXl.E     .                                 ",
"    O   K ,.N [.{.>.e.3.G.W } ` q.v #.p.q.5.8X| =.=.!.Z.<Xc lXDXAXAXAXCXCXCXNXNXcXZXaXQ 8   X                                   ",
"  X O   C T u e C.y | A.r.X.x.<.` ;.[.d.<.V.oX-X|.u.=.eXp.D H.VXgXdXcXcXdXzXcXzXkXNXsXj O   o                                   ",
"        0 T g S c Y.:.( 6.Z.D A.p.B t.~.' ^.^. X].-X=.4.Y.` S.VXvXvXhXhXbXcXhXhXfXVX`.g O   X                                   ",
"    X   X 2 P l H ;.;.e.p.*.m | ..| A ;.E.#.7.y.Y.5.-X6.4Xn.n.AXhXMXvXvXvXvXxXNXvXBX_.8 $ X .                                   ",
"        o   @ H +.+.> = v r V N }  X| [.XXy..X_ a.5.-X] w.1.K.NXvXfXxXvXhXcXNXgXzXBXaXl $                                       ",
"    .       o K g Y u | T q.%XU.C.XX#.A...+X%XA._ ;.r.8Xs.r J.ZXhXvXvXhXxXvXxXvXxXbXfXz.M   O                                   ",
"X   .       f n ..A.8.Y.! Q.V.5.| V.y.>.>.V.*.+X:.C.9.~ {.( J.DXcXbXkXkXvXxXzXvXvXhXNXx.j                                       ",
"        o O x.Z *.u.Z.}...R._ R.| =.4.Y.E.$.w.P.+X^ }.{._ Y ,XZXhXfXcXNXkXkXvXxXcXhXZX`.o.O       O                             ",
"          2 W _ F Z.q.E.-.d.( n.;.I.[ }.3X../.$X3X Xy.8Xe.v DXgXNXvXkXkXvXvXvXkXcXcXgXfXo.4 . .                                 ",
"    . X @ U &.;.R.<XX.d.| R.*.V 6.8X=.w.r.] s.tXi.f.C.*.t z.DXmXkXgXhXbXkXgXvXbXvXxXxXNXm.P       .       +   X                 ",
"X .   X & x.V V 7Xd.<.#.a.;.R.( <.tXP.4.8XZ.*.tX<X| -XQ.w aXcXMXxXVXvXgXnXvXgXgXgXVXVXCXlXE 1 $ & *   O                         ",
"      . $ v.D d.;.E.1.V 8XV.f.) x $X}...E.R.A..X3XQ.b S S.ZXMXmXhXcXkXkXkXgXcXCXxX;Xm.c.k.d U L J v.s     .   .                 ",
"        - o.,. Xc t.V 6.6.Z.t.P.e {.s.....V }.T.V r x.nXSXgXMXkXBXgXcXvXkXFXxXm.d & = = $ & - - $ 9 j * <                       ",
"        O ,.D y g w Z.d.n.XX} R.c | 8X XA.>.8.1.S H.CXNXgXcXkXnXgXcXhXZXNXM.s & % 3 1 1 2 2 3 1 2 & P G.P P O                   ",
"X       8 2.[.#.^.7.r.t.:.uX%.U.-./ =.-X/ c <.`.fXBXvXxXvXvXvXfXvXNXCX;Xl $ % 6 2 2 3 < < 1 2 < : & % < $ j k.o     +         . ",
"        & Z | yX-.a.e.A.y A.T.a.T.s.V.( D Z sXDXvXgXkXbXhXfXbXbXCX`.Y 1 & 6 0 , 1 : & % < : % & % , 2 < 2 $ s E $ X     .   +   ",
"    O   # x.u Q.| Y.0XZ.V q.}.|. Xa.S 2.FXl.x.CXkXvXgXgXxXCXNXaXI 1 $ 1 3 < 3 % # $ , 2 1 < < < 2 < 2 3 3 2 # < P k 8 O       . ",
"          9 2.D 9.5.%XoX4.T.E.F X.Y W J.GXY _.nXgXkXbXCXCX`.I 1 * 1 2 3 < % $ & 3 2 2 3 3 2 1 1 3 2 & & & $ % < % 8 s Q d * .   ",
"  O       . k.T t ~.=.3Xy.#.Q. .R G K h.jX,.gXbXCXSXjXS.n < # 2 0 2 , & & % 2 2 2 < < 3 < % & & # % = % < 2 1 3 < & & O R j   + ",
"    +       O m h 2.I Z D.T W 9 X @.k = pXNXMXaXv.I q = % 1 2 - & # & , 2 2 2 < % % % % % - , < 2 < 3 7 < : < & 7 l K l.k *     ",
"    X   .     X X a C d k P % X 7 J $ : K L q : , $ = < % & & & - 1 0 1 < % & & % : < 3 2 2 1 < , , : & 2 s j E l s $ & .   X   ",
"          .     X       +     O o.% 3 2 & % % % : : : & - < < 0 1 & & & $ % < 1 2 3 2 2 : $ < 7 f k 8 L P k $ $       X         ",
"                X     +   O   L k $ 2 < & % & & < < 2 2 1 2 % % $ % , 1 3 2 2 2 1 < % , 8 j k.j k P & & +                       ",
"                  .     .   $ k.& 2 % & % < 2 6 < < 2 < < $ % % 2 < 1 2 3 2 : & % 7 j R K d O     .       .                     ",
"                      . X   & j < < : 1 1 2 < < 2 2 < 6 % < 2 < 2 2 < < % & 9 d L j 8 &     O   +   O                           ",
"                        .   L d & 2 2 3 2 < 1 3 < < 2 < 2 2 2 2 < $ % 7 j E l 8 *       + X                                     ",
"                      X     P j - 1 < , 2 < 1 < 1 < < < = , & : 2 j E E 7 $       . +     .       .   .                         ",
"                        O   R f $ : 2 7 2 2 2 9 2 0 7 8 j s R k.f Q % . X     o         +   + .                                 ",
"                        .   s G.k E 8 1 7 0 7 2 0 7 8 s K % & $         .                               .                       ",
"                          .   # % $               X 2 K         . X +               .     O L 8                                 "
};
