/* XPM */
static char *Y3J5[] = {
/* columns rows colors chars-per-pixel */
"64 64 220 2 ",
"   c #0A0B0D",
".  c #060808",
"X  c #120D0A",
"o  c #07100C",
"O  c #0A130D",
"+  c #081007",
"@  c #17170D",
"#  c #0A0B13",
"$  c #120C16",
"%  c #0C1414",
"&  c #0F1814",
"*  c #0D1519",
"=  c #0F1918",
"-  c #121514",
";  c #141B16",
":  c #1B1B14",
">  c #13141A",
",  c #141C1B",
"<  c #1B1D1B",
"1  c #191516",
"2  c #221D1B",
"3  c #221B16",
"4  c #1B221D",
"5  c #1A2119",
"6  c #23231D",
"7  c #26281C",
"8  c #1B1C23",
"9  c #171A21",
"0  c #251D25",
"q  c #1C2322",
"w  c #1E2625",
"e  c #232523",
"r  c #2A2522",
"t  c #252B24",
"y  c #2B2A25",
"u  c #23232A",
"i  c #242C2B",
"p  c #2B2D2A",
"a  c #2B242C",
"s  c #332C2B",
"d  c #352C2A",
"f  c #2D322C",
"g  c #2C3226",
"h  c #32342C",
"j  c #36382C",
"k  c #2A2D32",
"l  c #332D33",
"z  c #2D3433",
"x  c #2E3635",
"c  c #333532",
"v  c #343A33",
"b  c #3A3C35",
"n  c #34363A",
"m  c #353B3C",
"M  c #3B3C3B",
"N  c #3C3534",
"B  c #433C3A",
"V  c #453B38",
"C  c #40332D",
"Z  c #3D423B",
"A  c #3C4439",
"S  c #42443D",
"D  c #49483A",
"F  c #50473E",
"G  c #3A3E41",
"H  c #363E41",
"J  c #453F42",
"K  c #3C4244",
"L  c #3F464A",
"P  c #444443",
"I  c #4C4C45",
"U  c #41454A",
"Y  c #454A4C",
"T  c #4C4C4B",
"R  c #484743",
"E  c #544A49",
"W  c #53524C",
"Q  c #5B554B",
"!  c #5A584A",
"~  c #494D52",
"^  c #464D51",
"/  c #594E53",
"(  c #4C5355",
")  c #4E5558",
"_  c #535453",
"`  c #5B5453",
"'  c #565953",
"]  c #5B5B54",
"[  c #535A5C",
"{  c #5B5C5B",
"}  c #53555A",
"|  c #4D5048",
" . c #695A5E",
".. c #625959",
"X. c #615A4D",
"o. c #5B615D",
"O. c #63645C",
"+. c #69665B",
"@. c #736C5E",
"#. c #5B5E61",
"$. c #555C60",
"%. c #695D62",
"&. c #745E65",
"*. c #5C6263",
"=. c #5E6568",
"-. c #626464",
";. c #6C6365",
":. c #6B6C64",
">. c #646A6C",
",. c #6B6C6B",
"<. c #646767",
"1. c #726266",
"2. c #736D63",
"3. c #756469",
"4. c #79656C",
"5. c #79696E",
"6. c #746B6E",
"7. c #6E7166",
"8. c #6D726C",
"9. c #72746C",
"0. c #7A756B",
"q. c #797568",
"w. c #6B6E72",
"e. c #676D71",
"r. c #7C6D72",
"t. c #756C71",
"y. c #6D7274",
"u. c #6B7477",
"i. c #737573",
"p. c #7C7374",
"a. c #757974",
"s. c #7A7B75",
"d. c #747679",
"f. c #767A7C",
"g. c #7A7C7B",
"h. c #7E7578",
"j. c #827C6D",
"k. c #83757A",
"l. c #847A7C",
"z. c #847A77",
"x. c #806F75",
"c. c #7D827D",
"v. c #77827E",
"b. c #82827D",
"n. c #8A8577",
"m. c #918A7D",
"M. c #95917E",
"N. c #7A7D81",
"B. c #8B7E82",
"V. c #867F82",
"C. c #7C8383",
"Z. c #7E8885",
"A. c #838583",
"S. c #8C8384",
"D. c #858B84",
"F. c #8A8A84",
"G. c #848689",
"H. c #85898C",
"J. c #8B8C8C",
"K. c #8C858A",
"L. c #948B8B",
"P. c #9A8D8D",
"I. c #928786",
"U. c #8D918C",
"Y. c #8F9287",
"T. c #92928D",
"R. c #999488",
"E. c #8C8D92",
"W. c #948D93",
"Q. c #9A8D92",
"!. c #918790",
"~. c #8D9395",
"^. c #8E9598",
"/. c #939493",
"(. c #9A9294",
"). c #9B9A96",
"_. c #949599",
"`. c #9C949A",
"'. c #959B9D",
"]. c #9C9C9C",
"[. c #949A95",
"{. c #A19C9D",
"}. c #A19997",
"|. c #9CA19E",
" X c #96A09C",
".X c #A3A39C",
"XX c #A9A69B",
"oX c #9B9DA1",
"OX c #979EA0",
"+X c #A79CA2",
"@X c #9BA2A3",
"#X c #9DA6A8",
"$X c #A3A5A3",
"%X c #ADACA3",
"&X c #A3A6AA",
"*X c #A4AAAC",
"=X c #ABACAB",
"-X c #A9A6A7",
";X c #AEB1AB",
":X c #B2B3AC",
">X c #B3B3A7",
",X c #A8ADB1",
"<X c #ABB1B6",
"1X c #ADB5B9",
"2X c #B3B3B3",
"3X c #BDBBBD",
"4X c #B4B8BA",
"5X c #B0ACA6",
"6X c #BEC0BF",
"7X c #B7BDC2",
"8X c #C1BFC4",
"9X c #BBC2C5",
"0X c #BCC4C9",
"qX c #C4C7CA",
"wX c #CCCDD4",
"eX c #C7CBD6",
"rX c #CCD2D9",
"tX c #D1D2DE",
"yX c #CDD0D5",
"uX c #D1D4E1",
/* pixels */
"o o o o o o o O + O & & & & 5 g K L =.N.C.Z.Z.Z.Z.C.C.Z.Z.D.c.v.[.~.E.!.H.H.!.E.E.E.E.E._._._._.W.J.F.b.b.c.s.s.,.] b y e e 5 : ",
"o o o o o O o o O & & & 5 5 4 t A L ) e.N.C.C.Z.Z.C.v.v.v.v.Z.Y.Z.Z.H.H.H.H.E.E.E.E.W._._.^.E.E.g.c.b.b.s.,.] W b c p e 6 6 < : ",
"o % % % % O % % ; ; 5 4 4 4 t g x K L o.$.=.=.=.v.*.) [ *.8.a.c.v.C.G.H.H.G.G.G.E.H.H.H.H.G.C.N.v.s.8.-._ Z p 4 < 4 e e 4 4 < < ",
"% % % % & & & % 5 5 4 4 4 5 t 4 i x A L L K H x i x i x A Y ( } o.=.>.u.d.N.N.C.C.C.A.Z.G.G.C.N.f.>.T f 4 ; * % e e 4 4 < < 4 5 ",
"# % % * * % * % = 5 = w 4 4 4 4 t g f f p i q q = = & = 4 w i i e i x K Y ) *.>.y.u.v.C.C.v.u.=.U m q % o % q q k w w , q q q 8 ",
". o # % % % % % = = = = 4 5 5 5 5 5 w 4 e q 4 < & & & & = = % % o % * 4 q i c m ^ ) o.>.>.[ Y m ; & % % , 9 w w q , , w i i e q ",
"# # * * * * * * = = = 4 w 4 5 & 5 5 6 4 4 4 4 e & = ; , , 9 > % * = = = = = , q w x x A m x w 4 o % , q w w w q = w w i z i i w ",
"% * * 9 9 9 = = = & = = w w 4 & : : 5 5 6 4 6 4 ; 5 4 w u w q 8 O & = 4 4 4 4 q w 4 4 & 5 5 4 4 = = = 4 w w i w w i z z i i w k ",
"9 = 9 9 = = & O & = = , 4 , , , 5 @ : : : 5 2 6 6 u u e u l k p ; < 5 4 i f i 4 5 4 4 7 4 4 4 4 , , 4 w i i w z x x A x x x i i ",
"* * * * = & & & & & = = = 4 = , @ @ : : 5 7 6 7 y p p p h n n c y i f f b A A b f i t t t t e 4 i i i z x z i w z x x A K x x x ",
"* # o % % % = & & & = , 4 4 4 4 6 6 6 r 7 s h h h b N N M B P B b A S R I ' o.' S A v f h f f f A i i z x z t 4 w i x A A x K x ",
"% * % % % = = 5 = , w w w t i i p p s h j b b S B P R S P T T T | W ' ' o.7.9.s.o.' I S B S b b g i i g A z i t i i f g i A x x ",
"* * * % & & 4 4 w w i g A x A x N N M B P R I E I W ` Q Q ` ..] ] o.+.-.9.b.F.R.b.9.O.! | I D R A A A f b v v b j f g g i i A A ",
"* * % & 5 5 4 w i g x A A A A A Y E E T E W ` Q ` O.+.-.+.+.@.+.2.7.9.9.z.R..XXX}.T.z.:.Q | I D L A A f j h g g j f g g A A A A ",
"& = = , 4 w i t x v A A | A A L J E T E E E W W Q O.6.q.@.j.j.j.9.0.0.j.m.}.XX%XXX}.m.q...| I ! F A g 7 g 7 : @ 5 5 7 7 g g g A ",
"5 , 4 w g g x x A A A A A L A A G J M M B M B B | ..2.q.@.j.j.j.0.9.9.s.Y..X>X%XXX.XY.q.O.! ! X.! A 7 7 g y @ . . + @ : 5 7 g 7 ",
"; 4 g g g f A A D A A v f t 4 < 8 8 H a # 0 a X C F @.j.j.@.@.j.v.v.@.v.Y.XX>X>X%XXX}.n.@.X.X.X.| 7 @ e a 9 # $ $ # . . @ 7 g j ",
"4 t f f f A A g f f g t q 5 - $ 9 $ 0 a $ $ 3 3 7 D +.j.j.j.j.j.@.+.O.7.n.XX>X:X>X%XXXM.j.@.X.Q g 7 y s 0 9 9 # # # . . O 7 j A ",
"t i g j g A g g t 7 7 4 , ; % - $ a u $ $ X X 3 3 V X.+.+.j.@.j.+.o.o.v.Y.%X:X:X>X>XXX}.m.j.X.Q r 6 p u a ~ } 0 $ # . . O 7 A ! ",
"g g f f A A A 7 7 t 6 5 ; ; > > l =./ $ X 2 2 3 7 V X.@.j.j.X.X.O.O.8.Y.|.>X>X>X>X%X}.R.m.j.x.X.2 0 N s 9 J / 9 $ # # . @ g D +.",
"f g z g A A A 7 t 7 4 ; - % $ > H %.Y     2 r j D S Q @.0.2.@.2.v.v.M..X;X:X:X>X>XXXR.M.M.z.j.Q 2 B t.%.0 $ 0 # $ # .   ; g | +.",
"f g z g A A D A g p 4 ; - % * > 9 k > $ 0 : 6 E F V D +.2.@.4.I.c.[. X>X:X:X:X2XXXXXXXR.R.m.@.E d N %.%.a $ 0 $ # # $ 1 7 A | o.",
"i g g A A D D A b h i < - - * > 9 $ $ l _ M c | j b I :.z.l.P.}.#X;X>X>X:X5X5X>XXXXXXXR.P.I.j.X.V 2 0 r 0 0 0 1 $ $ < s A | ! ] ",
"w i i A A D | D Z v t < - % * $ # # $ n #._ c y y B ..b.).-X2X3X;X;X;X>X:X:X5X5X5XXX}.R.M.P.z.4.Q V C d V l r 1 1 2 s b ! X.O.X.",
"w 4 4 t g v S I A A t ; * k ) <.$.} G H t w A A o.8.U.;X8X8X3X8X9X9X6X:X;X%X$X$X(.L.I.L.P.P.m.z.@.X.F ! ! F C D V V ! ! O.+.! D ",
"f z f f v b Z R I Y Z f u H U } G G H H A A | >.Y. X:XqXwX8X8X8X6X6X6X4X=X.X(.(.(.L.F.I.P.I.I.z.n.j.j.j.q.@.@.+.2.q.@.+.X.! D A ",
"z z c f c v v A m A m f 0 u k k k H H ~ o.v.Y.#X4X6XqXyXtXeXtX8X9XqX6X;XoXL.F.S.Q.L.B.I.I.P.I.m.m.M.M.M.n.n.n.c.q.q.@.! D D j 7 ",
"i p i f f f c f b m M m H H H k G ^ $.u.v. X4XqX6XqXwXyX8XtXtXtXyXqX6X%XW.A.V.S.L.I.B.K.P.P.P.I.n.M.M.M.M.M.c.@.Q ! D A j g g 7 ",
"z s x c c v v v Z K K P U Y ^ ) $.u.Z.'.#X1XqXyXqXwXyXrXtXtXuXuXtXtX8X-X_.K.V.V.h.h.k.B.P.}.Q.P.M.M.M.M.R.R.n.7.D A f e : : : 5 ",
"K G M G M A M Z Z Z M K U ~ $.$.N.Z.OX*X1X9XqXqXqXyXyXrXrXtXeXeX8X8X8X8X=X`.!.V.4.4.r.V.I.}.Q.P.M.n.z.z.T.[.[.n.W Z y < @ @ & 5 ",
"c n c c z v v v Z A K T ~ } >.N.C.OX,X1X9X9X9X9XqXqXyXyXrXeXeXeXwX8XwX8X8X=X`.!.x.x.x.k.B.Q.I.I.k.9.a.m.).+X$X].g.{ n u 9 9 , < ",
", , , < q t p f p z m U ~ ( <.N.^.#X1X7X1X9X9X9X9X9X9XeXeXrXtXeXtXtX8X8X8X3X-X{.Q.B.B.B.B.B.B.l.p.i.A.].2X2X=X2X=XA.) n k w 8 w ",
"& = , 4 w i i x i x K L L $.N.N.#X#X1X7X7X0X7X7X0X0XrXuXrXrXuXuXtXwX0X0X8X3X-X+X}.B.l.x.x.x.z.h.p.F..X:X2X2X2X2X*X|.g.~ z k x H ",
"A A K L L L L L $.$.$.$.e.N.C.^.#X#X1X7X7X7X7X7X0X0X0X0X0X0XeXrXeXeXqXqX8X4X5X+XQ.B.l.x.x.x.x.z.F.T.$X=X2X:X=X=X2X*X'.f.} H k z ",
") [ [ $.=.=.e.=.e.e.e.=.e.C.^.OXOX,X1X1X1X7X7X,X9X9X0X0X0X0X0X0X7X7X7X7X2X-X+X`.B.B.x.x.j.z.z.n.).].%X=X:X=X*X-X=X|.~.g.$.H x H ",
") ) ( ( [ $.$.$.) [ ) ) $.N.Z.^.OX#X#X<X<X<X,X7X*X7X0X0X0X0X0X7X4X<X=X+XoX`.Q.Q.z.x.&.x.x.l.I.L.{..X$X%X=X;X=X=X;X@X~.g.$.U G ~ ",
"K K H K L L L L L ( ( ) $.e.N.N.Z.#X#X,X,X,X,X,X#X,X<X7X4X4X<X<X,X&XoX`.!.!.B.B.x.&. .x.z.I.P.P.{..X.X%X-X=X-X=X|.$X'.f.} U G M ",
"x x x H L L ) L L $.$.$.=.=.N.e.Z.Z.Z.^.oXoX#X&X#X#X#X,X<X,X&X+XoX[.W.!.B.B.t.%. ./ E  .x.S.I.P.}.)..X$X$X$X$X$X_.|.E.<.U G L K ",
"x H K L L ) L [ [ $.=.=.=.e.e.w.N.N.N.^.E.^.OXOXOXOXOXOXoXOX_.E.A.h.,.%.%./ E J J J V /  .x.k.I.T.[.|..X$X.X].|.@X|.J.>.Y L ~ #.",
"K L L L L L L ) L $.$.=.>.w.w.w.N.N.N.N.H.E.W.^.!.H.H.Z.G.C.N.i.i...J d l d d 0 C C V V / ..5.l.m.L.]..X.X].].@X'./.J.f.[ n n L ",
"L L L U ^ U ~ U U } >.w.y.u.w.w.N.N.N.t.N.t.w.t.,.<.{ T R ~ %.u.` B 2 3 6 r r r d j N l C V / 4.p.b.F.[.).]._./.[.A.i.>.<.*.*.=.",
"H H G H H G J ~ ( #.w.d.N.N.N.d.N.N.%.#.~ Y U J k p u < u n { i.B s 1 3 6 y r y d d d r 2 d J / 9.h.b.F.J.J.J./.G.a.*.U n m } w.",
"H H x z l n ~ } >.t.f.g.N.d.d.,.H ^ H H p r 8 2 e 2 1 1 1 y R ` 2 3 1 2 y p 7 t p p 0 2 3 0 B E ..:.s.b.F.F.F.F.a.8.#.K u w L >.",
"H k n n G T #.w.d.g.f.i.w.;.{ ~ k u 0 $ 1 @ $ - 0 6 e : 1 1 < 2 3 3 3 6 7 t 7 5 6 2 2 3 2 a J _ W ] <.p.g.i.<.-.} o.=.{ Y K ~ *.",
"Y P P Y { ,.i.g.a.a.i.<.{ T M h c r 3 : 1 1 1 : 1 3 2 6 3 1 X . @ 3 3 7 7 7 7 5 - @ - ; 2 h R ` _ W W _ _ I M p p x U #.>.e.e.u.",
"-.O.-.7.g.b.b.g.8.,.O.T Z c p 6 a r r r 6 2 2 6 3 2 0 r r 7 3 3 @ @ @ 3 7 7 t 7 & - = 5 r c B E I B v h c c p u , 1 q M #.u.N.N.",
"b.b.b.m.U.F.b.g.9.8.' A p e t y r y d j d y r d 7 r r r r 7 1 X @ @ 3 3 7 7 7 ; O & 5 4 t s c b f s p p p p p p < % , n ) w.f.N.",
"Y.[.[.[.[.F.b.c.s.8.` h 2 : y d j B R E V d r d N N B B C d 1 X @ @ @ 3 7 7 4 & + + O = q u u u 8 r c h r < < < < , e G $.w.N.C.",
"~.~.~. X X X[.D.Y.c...j 6 d C V V E  . ./  .E V / / /  ./ J N r 7 7 6 6 5 7 < O O ; < q q 9 9 8 8 u c n u : < e p b T *.w.u.d.N.",
" X X X X#X|.[.Y.U.Y.9.E d C V V J / /  . .&. ./ /  . . .` / E P D j 7 7 : @ @   < 8 i u w 9 9 , > e k p i e t h S T { ,.i.d.N.N.",
"OX X@X#X#X#X@X^.U.T.F.2./ V F V V / /  .x.&.x.&. . . . .%. .%...X.F A g 7 : : < c M K G x u q 8 0 u k n c c b R ] O.,.i.h.N.N.N.",
"OX X X X#X#X@XOX~. X[.n.x.&.X.E F /  .x.&.x.x.x.x.&.&.&.&.%.&.&.O.X.W D h t h R o.*.*.[ ^ K m m m n n N M Z | ] ,.,.8.a.d.d.d.h.",
"OX'.'.OX#X#X&X#X'.).`.Q.m.x.&./ E / &. .&.x.x.&.&.&.&.&.&.x.&.&.:.O.] D h h _ 9.g.f.y.>.*.} ) ) _ Y J Z P T o.:.9.i.i.i.d.d.d.d.",
"OX'.'.OX#X*X*X&XoX].(.Q.Q.P.x.4./ E  .x.x.&. .x.&.&.&.&.&.&.x.x.0.:.W h p D 9.J.D.C.i.,.=.=.*.*.#.~ Y T _ { <.9.s.a.i.g.f.N.N.d.",
"'.^.^.^.OX*X*X*X&XoX`.`.+X`.P.B.x.x.&.&.&.&.x. .&.&. .&.&.&.x.x.l.9.' b Z -.D.T.U.c.i.y.y.y.7.=.<.[ _ { -.:.8.9.s.s.s.s.g.g.h.d.",
"^.~.~.~.OXoX&X&X&XoX`.`.`.{.+X+XB.x.x.&.x.x. .x.&.x.&.&.x.x.x.B.b.s.O.I O.F.).U.U.Z.d.i.a.v.u.=.,.%.#.<.9.i.8.8.s.a.a.g.b.g.d.d.",
"J.E.E.F.E.^.oX#X,X=X+XoXW.!.`.+X-X{.B.x.&.&.x.x.4.&.&.4.r.k.l.l.s.0.o.' c.).T.U.D.A.s.a.a.y.u.>.>.>.,.8.8.9.9.9.9.9.a.a.v.g.g.f.",
"G.G.G.G.H.~.'.#X,X,X&XoX`.W.`.+X+X-X+XQ.B.l.x.x.r.4.5.4.5.r.h.l.p.O.W -.F.T.T.T.D.c.f.a.a.a.8.>.,.,.8.8.9.9.9.7.9.9.9.s.s.s.g.f.",
"A.C.b.C.A.E.'.|.-X-X=X+X`.W.B.`.L.Q.`.{.Q.B.k.k.x.x.x.x.r.p.l.S.p.W W g.(./.T./.D.c.s.a.a.a.u.8.i.,.9.a.u.9.7.7.9.9.9.9.i.g.g.i.",
"s.h.c.c.c.H.[.@X&X&X&X&X+X`.W.B.K.S.!.Q.}.Q.B.B.k.k.l.B.V.V.l.V.,.T *.L.[./.T.D.Z.c.v.9.u.a.u.9.i.a.a.a.9.9.7.7.7.7.7.9.i.s.i.i.",
"s.s.s.s.c.D.T. X$X$X&X-X+X`.B.B.k.,.%. .3.r.k.V.B.B.B.B.V.h.6.;.T T 8.(./././.b.b.c.v.v.v.a.a.8.g.s.d.s.q.9.7.7.7.7.:.8.9.i.i.9.",
"9.9.9.9.s.c.Y.[.@X&X-X,X&XoX`._.<.P a p J ` 3.V.B.B.B.B.p.3.[ T M _ i.F.A.L.U.A.v.v.v.q.7.u.a.9.i.a.s.i.a.9.7.7.7.7.7.7.i.i.i.i.",
":.:.:.:.7.v.b.U.|.|.$X-X+XoX`.W.6.P 0 s T %.h.V.h.h.p.h.i.,...{ E ,.g.N.g.b.g.g.v.8.7.v.8.8.a.a.i.i.i.9.a.7.7.7.9.9.9.8.i.a.s.s.",
"+.O.+.+.+.9.v.b.[.).OXoX+XoX`.W.i.I u a U ` ..%.;.6.r.d.d.i.g.g.h.H.A.g.l.9.-.8.8.>.7.8.8.8.a.a.9.9.a.a.a.9.9.7.9.q.9.9.a.s.g.g."
};
