/* XPM */
static char *bbe2e70fcbd24bc0acb3f2c27747e353TAQYosztauomPNaX[] = {
/* columns rows colors chars-per-pixel */
"64 64 249 2 ",
"   c #33291D",
".  c #261E27",
"X  c #343038",
"o  c #5C2515",
"O  c #662110",
"+  c #6C2312",
"@  c #7A2816",
"#  c #71321A",
"$  c #473927",
"%  c #5A4832",
"&  c #675037",
"*  c #72593B",
"=  c #7A623D",
"-  c #393744",
";  c #3E3E73",
":  c #443F47",
">  c #45444A",
",  c #4B4A55",
"<  c #535051",
"1  c #7B6644",
"2  c #68615D",
"3  c #616070",
"4  c #842D18",
"5  c #8C331C",
"6  c #88351D",
"7  c #94371D",
"8  c #9C3B1E",
"9  c #A13E1F",
"0  c #883C23",
"q  c #993D21",
"w  c #A13F20",
"e  c #884524",
"r  c #9C4324",
"t  c #9A4927",
"y  c #99532C",
"u  c #975B32",
"i  c #A44423",
"p  c #AC4523",
"a  c #AC4A25",
"s  c #A44B28",
"d  c #AD4D29",
"f  c #B44B26",
"g  c #B74C27",
"h  c #B34E28",
"j  c #A8542B",
"k  c #B4532B",
"l  c #BB532A",
"z  c #B45A2E",
"x  c #BA592D",
"c  c #A85D32",
"v  c #B85D31",
"b  c #946638",
"n  c #A96337",
"m  c #B56133",
"M  c #B96536",
"N  c #AC723D",
"B  c #C3552B",
"V  c #C45B2E",
"C  c #C95A2F",
"Z  c #C65F31",
"A  c #CC5E31",
"S  c #C8612F",
"D  c #C46432",
"F  c #CC6432",
"G  c #C86B36",
"H  c #CC6B36",
"J  c #D36A35",
"K  c #D46C35",
"L  c #D96D36",
"P  c #CC7239",
"I  c #D77137",
"U  c #D4743A",
"Y  c #DB7439",
"T  c #D57B3C",
"R  c #DC7C3D",
"E  c #E07D3D",
"W  c #866A47",
"Q  c #8B7348",
"!  c #92794A",
"~  c #987550",
"^  c #B2774D",
"/  c #857966",
"(  c #A07E64",
")  c #CA7C43",
"_  c #DB7E41",
"`  c #D5803F",
"'  c #DC813F",
"]  c #E0823F",
"[  c #978651",
"{  c #998656",
"}  c #A48A4C",
"|  c #AC914E",
" . c #A48B58",
".. c #B98655",
"X. c #AC9354",
"o. c #AA955A",
"O. c #B39956",
"+. c #B39D5B",
"@. c #B7A35C",
"#. c #95876A",
"$. c #948B75",
"%. c #9B9271",
"&. c #AB8A6D",
"*. c #A99767",
"=. c #B49B67",
"-. c #AC8C76",
";. c #A89774",
":. c #B59778",
">. c #B7A465",
",. c #BDAB64",
"<. c #BAA979",
"1. c #BDB075",
"2. c #D78545",
"3. c #DD8442",
"4. c #DD8A45",
"5. c #DF9047",
"6. c #DC934B",
"7. c #CC8A51",
"8. c #D39759",
"9. c #E18442",
"0. c #E18A44",
"q. c #E18F49",
"w. c #E09146",
"e. c #E2944A",
"r. c #C7986B",
"t. c #CD9B6D",
"y. c #C5AA67",
"u. c #C7B56B",
"i. c #CAB56D",
"p. c #D0AB71",
"a. c #C6B574",
"s. c #CDBB73",
"d. c #D2BD74",
"f. c #D3C275",
"g. c #D5C679",
"h. c #D8C67A",
"j. c #DCCB7D",
"k. c #E1CF7D",
"l. c #757787",
"z. c #807F84",
"x. c #7382A9",
"c. c #908D8D",
"v. c #959497",
"b. c #A79789",
"n. c #BA9C86",
"m. c #A59690",
"M. c #B8A786",
"N. c #B1A990",
"B. c #BAA894",
"V. c #BAB399",
"C. c #858FA3",
"Z. c #A8A7AA",
"A. c #B1ADAD",
"S. c #BBB4AC",
"D. c #B7B4B5",
"F. c #B6B4BA",
"G. c #B9B6BA",
"H. c #BCBABC",
"J. c #C5AA89",
"K. c #C6B785",
"L. c #D3B28A",
"P. c #C8AA95",
"I. c #C8B997",
"U. c #D4B998",
"Y. c #C4BAA8",
"T. c #D6BCA3",
"R. c #C4BDB3",
"E. c #D8C986",
"W. c #DFD186",
"Q. c #CDC397",
"!. c #D7C998",
"~. c #DED397",
"^. c #E1CE84",
"/. c #E3D483",
"(. c #E9D685",
"). c #EBDA86",
"_. c #E4D48B",
"`. c #E7D88A",
"'. c #EBDC8B",
"]. c #F1DD8C",
"[. c #E5D897",
"{. c #ECDD93",
"}. c #F0DE95",
"|. c #EEE18D",
" X c #F3E58B",
".X c #F3E48D",
"XX c #EDE197",
"oX c #F5E593",
"OX c #F8E796",
"+X c #F6E895",
"@X c #F5E59A",
"#X c #F7E899",
"$X c #CAC4AA",
"%X c #D9C8A8",
"&X c #DCD4A6",
"*X c #CBC7B7",
"=X c #D6CBB5",
"-X c #DAD4B9",
";X c #E1CCAC",
":X c #E4D8A8",
">X c #E5D3B4",
",X c #E5D7BA",
"<X c #EDDABE",
"1X c #F2DDBE",
"2X c #F4E5A2",
"3X c #F6E9A4",
"4X c #F6E9A9",
"5X c #F6EAAB",
"6X c #EAE2B9",
"7X c #F4EAB3",
"8X c #F6EBB4",
"9X c #F7ECB8",
"0X c #BBBBC1",
"qX c #C1BFC0",
"wX c #C9C8C6",
"eX c #CFCFCA",
"rX c #DAD5C3",
"tX c #DAD7C7",
"yX c #D3D2CC",
"uX c #D5D5D3",
"iX c #D8D8D5",
"pX c #DBDAD5",
"aX c #DCDDDA",
"sX c #E4D9C4",
"dX c #ECDCC3",
"fX c #F2DEC3",
"gX c #F1DFC9",
"hX c #E0DFDA",
"jX c #DEE0DF",
"kX c #EAE4C8",
"lX c #F5E2C6",
"zX c #F5EBC5",
"xX c #F6E4CB",
"cX c #F8E5CA",
"vX c #F6EDC8",
"bX c #F9F2CA",
"nX c #EBE8D7",
"mX c #E2E1DC",
"MX c #F2EDD8",
"NX c #FAF3D3",
"BX c #F7F2D9",
"VX c #E4E5E3",
"CX c #E7E7E4",
"ZX c #EAEAE5",
"AX c #EBEDEB",
"SX c #EEF0ED",
"DX c #F6F4E7",
"FX c #EFF1F0",
"GX c #F0F2F1",
/* pixels */
"x k D P P H H H H H H H F F J F l d d d d d d k z c v v v M v z c m m m m v c z v c t 0 0 q r d d a p i 9 9 9 8 8 p a x g x H ` ",
"s a a k D H G D F G H H ) A F Z l d h k k k k v v v v m ^ ^ r.J.U.T.;XT.U.J.:.^ n y t t r s z k k s 7 7 4 4 7 p f l S P I x M M ",
"q q r i i h a r i s s d k k k d d d k v v v v v v M &.L.;X6X8X8X4X4X4X4X8X9XvXlX=Xt...) ) ) 2.2.T k w 7 4 4 9 V J A L K n e # o ",
"q 5 6 6 4 6 6 @ @ @ 4 4 0 q w s d k d s v M v n ^ T.MXgX:X[.}.oX].oX].oX].oXoX@X8XvX,XL.8.6.w.5.4.R P h 5 a C J J K L Y P u # o ",
"@ @ + + + O O o + + + + 5 w w s t r r 0 0 r c J.nXBX9X8X7X6X&X[..XoX#XoXoXoXoXoXoXoX4XcX;Xy.6.6.2.T _ D d P Y Y L L L K ` ] I D ",
"6 @ @ + O O O O O + + 4 q d k s s s s t 0 W %XvX8X@XoXoX@X2X8X6X[.oXOXoX{.[.[.oXOXoXoX@X9X<Xp.6.6.4.4.3.Y E L F S L S I ] ] ] ' ",
"D x d 6 O O O O + @ 4 q k Z _ _ _ _ _ ) :.,X8X@XoXoXoXoXoXoXoX@X4X2X[.~.,XvXkX&X[.#X@XoX@X8XkXi.6.6.w.2.3.R U H S B S L ] ' ` H ",
"_ U D i 4 6 r r d v B ) _ _ _ _ _ 2.) L.lX4X.XoXoXoXoXoXoXoXoXoX{.~.6XbX9X9XNXDXkX[.@X@X@X@X8XkXy.e.6.w.4.4.9.9.] I S S S K I K ",
"3.T U G x G P P _ _ R _ _ 9.3.4.6.6.U.vX2XoX'.).oX+XoXoX+X+XXX|.~.6X5XoX+X+X3XNXDXkXXX#X+X+X+X9X<X8.e.5.5.4.' 4.] ] ` s 7 a I I ",
"3.' 4.4.' ' ' _ _ _ 3.3.9.9.2.6.7.U.bX3XoXE.>.@.1.j.|.oX+X+XXX|.@X@XoX+X+X+X+X3XNXDXkXXX3X+XXX+XzX!.8.e.5.5.5.4.] ] ] M a f S S ",
"3.4.' ' ' 4.3.3._ 3.3.3._ _ 2.7.U.BX4X{.i.o.@.y.f.f.j.oX X+X X/.f.u.g..X+X+X+X@X3XNXDX6XXX3X3X+X3XvXp.e.5.5.w.' ] ] ] ` ` S S S ",
"3.3.' U U Y R ' _ _ _ 2.4.6.6.L.BXbXXXu.,.j.).oX X|.|.XX X+X|.u.@.O.@.s. X+XXX+X@X3XBXDX:XXXXX+XoX9X:X6.5.5.4.4.] ` ] ` ` I ` ] ",
"Y U K U R ' 9.9.` T T ` 5.6.p.MXDXbXW._.oXoXoXoXXX~.6X6X4X+XoXoX|.u.@.O.g. XoXoX@X@X3XkXMX[.XX+X/.@XxXp.6.4.4.4.] ' ] ' ' ` S H ",
"H U U R Y U U T U P T T 2.t.kXNXDX6X{.OX+X+X+XoX|.6X9X@XOXOX+XoX+X.Xf.@.@.|.oX|.`.!.$X*XZX6XXX+X`.'.9X%X4.4.2.4.' ] ] ' ' S j z ",
"w a x D P P U ` ` ` 2.2.7.>X8X4XkXkX4X@X+X+X+X+X[.vX3X+X+X+XoXoX+X X+Xj.O.u.W.1.V.-X-X-XtXBX&X+X}.~.NXxX8.e.] ] ] ] ' ' ' I G S ",
"w a v U ' ' 4.0.w.5.e.6.!.9X@XoX,XDX9XOXOXOX+X+X-XbX+X+X+X+XoXoXXX X XoXf.X. .$.b.-XrXrX*XrXQ.[.@X:XBXDXg.6.w.] ` ' ' ' ' ' ' ' ",
"G P ` ' 4.0.w.w.e.e.6.p.zXOXoX'.4XDXbXXX#X+X+XXXkX8X+X+X+X+X+X+X+X+X+X+X X,.[ #.%.$X-XtXrXrX*XQ.2X6X6XzX;X8.e.4.0.3.3.3.E E E R ",
"] ' ' ' ' 9.3.4.q.6.y.6X3XOXoXOX+X9XkX5X#X#X+X[.vX5X+X+X#X+X+X+X+X XXX X+X`.[ / %.$XrX*X*XtXkX&X:X3X_.3XlX8.0.3.3.9.0.4.0.3.E 9.",
"' ' ' ' ' ' ' 2.2.7.%X9XoXoXoXOX#XXX:XNX5X+X+X&XNX3X+X+X+X+X+X+X X+X+X+X+XW.%./ H.rX-X*XrX*XnXtX~.@XW.@XbXt.) P U _ 3.3.0.9.0.9.",
"] R R R T T G M P t.zXoXoX`.oXoX#X`.XX8XbX5X+X:XbX@XoXXX/.+X+X+X+X+X XXX+Xg.$.$.V.rX*X*XtX*XDXnX=X:XW.{.zXP.v D D G P U R 9.] 9.",
"J F l a t r r t c %X4XoX Xj.oXoX+XW.+X+X3X5XXX6XbXXXW..X(.OXOXOX+X+X+X+X+X[.%.$.v.-XyX$X*X*XAXDX-X~.W.XX9X%Xc v D S S x l V K U ",
"f l p 7 5 5 6 7 ( lX_.]./.).+XoX|./.+X X|.+XXXkXDX9XE.|.`.OXOXOX+X+X3X5X9XbXV.$.%.$XtX*X$XrXMXrXsX&XW.`.2XkX^ j v v v h a f l P ",
"f f 9 7 8 i r c U.4Xj.].d.oXoX.X/.'.+Xk.`.+X|.kXNXNX&X:X[.oX@X3X8XbXbXBXDXBX*X$.$.A.rXrXrXnXkX&XDX:X~.|.@XzX&.a s i i w p a l I ",
"k f p p l x l ^ >X{.h.j.f.oX.X/.k.|.XXk.|.XXXX6X@X@XE.E./.oX#X3X5X7X7X7X5X5XXX%.%.$.V.$XrXMXZX6XNXkXW.~.oXzXr.t r r 8 8 7 i f l ",
"f f h l l k x ^ 7Xd.p.d.k.oX Xk.k. X Xf.'.OX[.6X#XOX/.,.g.oXoXoX+X+X+X+XXX+XXX1.%.#.%.%.rXZXAX&XzXkXE.`.{.9XP.t t r q 5 5 w g g ",
"k f h h h l k r.}.O.i.u.]..X].j.k.XXj.,..XoXE.6X#XOX'.+.s.oXoXoX+X+X`.+X+X XXX`.`.1.%.$.$X6X&X[.9XMXQ._.`.,XT.c s i q w w l A Z ",
"d k V l h k x t.k.N y.y.]. X).j.W. X1.@.oX'.>.&X+XXX.X>.+.oXoX'.|. Xk.|.+X+X+X+XXXg.*.%.K.~.XXXX4XBXQ.{.'.:X>Xc j a h x l A _ L ",
"r a f f h l x y.y.z O.u. X X(.k.k. X+.o.|.W.{ &X+X.X Xi.[ )..Xk.g. Xk. X X X+X X Xk.`.`.|.+X+X+X2XbXQ.{.'.~.fXW s s i i h p l A ",
"@ 5 8 w B w d ..7.s } i.k. X(./.j.g.[ [ |.s.W ~.+Xk.).g.= g..X(.f. X`./.oX+X+X X Xj. X+X+X+X+X+X@XbXI.'.XX~.kX .t r q q w p g B ",
"@ 4 4 7 q w s ^ N j b u. X X(.(.j.g.= Q h.@.1 !.+Xk.f.).Q +. X).@.k.|.W. X X XXXk.f.`. X X+X+X XOXzXV.`.+XW.kX:.y q q w w f p f ",
"+ @ @ 4 4 5 w n u j u u.k. X)./.j.f.1 Q d.! * K.|.k.,.(.@.Q /. X,.f.|.u.|. X X+X Xf.k.+X+X+X+X+X+X9XV.k.OXW.,Xb.b q q i p f g g ",
"@ @ 4 4 4 @ 4 0 e i y ,.k. X(.k.k.,.= 1 a.~ * ;.W.|.@.s.f.W >. X,.+.|.@.,. X X X Xu.k. X+X X+X+X+X9XM./.oX'.,Xn.b y i h g l B B ",
"4 4 5 9 7 5 4 @ # q s y.k.^.(.j.W.1   % { W W &.j.].i.| j.~ Q j.f.Q j.u.! k. X|.k.u.k. X+X X+X+X X7X1.j.oX|.&XU.u u j C B B C B ",
"8 8 9 p 9 5 4 4 @ 6 q 7.).d._.s.|.o.    $ & * #.d.).j.} +.=.* W X.* } s.Q *.|. Xk.@.k.+X X+X X+Xk.3X>.g.oX|.~.%Xn c u m C C B l ",
"9 9 p p 9 7 7 5 q q r } (.a._.i.|.f.1 / <   . % a.E.k.y.! =.W W +.[ 1 1.Q W f. Xk.@.k. X X X+X XW.~.o.f..X.X_.=X^ M j j C C B B ",
"9 B g g p 9 9 9 i a d n h.U._.i.j./. .b.Z., - X { >.].i.! ~ & & 1 1 1  .=.Q  .(.f.O.). X X+X Xk.g.>.X.,.oX|.|.&Xr.D D y k C C B ",
"B g g g g g p 9 i a a j y.&X~.d.,.'.a.-.B.3 x.l.%.*.h.^.{ Q %     X $ $ 1 & W y.u.O.). X X X Xf.f.[ } ,. X X.X~.r.M H z y C C S ",
"g g g g g B l f i i j z N !.W.W.+.s._.K.:.#.$.$.;.:.=.(.y.( ( / 2 . . . .   $ = } ,.|. X X X/.@.@.[ | @.|. X|.XXJ.m D F z j A A ",
"g B B B C A S S x x v D ^ ;.E.E.i.X.a.E.I.:.-.-.:.<.n.a.E.&.&.n.F.l.l.; > c./ % ! s.XX X+X Xu.X.+.} } +.k. X XXXT.) U F D j x F ",
"B C C C F Z F S S S G G r.M.%X;XE.+.*.a.J.%XT.%X%XP.>X%XL.a.-.&.l.l.C.l.2 B.&.&.o./. X X Xk. .y.,.| [ X.k. X X+X!.r.R U H D j x ",
"A A A A A J J A F F U P r.-X1XfX~.a.o.<.>X1XfXfXfX;X;XgX;XL.:.:.-.-.-.( -.:.:.-.p..X].OX(.a.@.^.K.=.} X.g.oX.X.X:Xr._ R U L H y ",
"A J A J L L L L U U _ ^ U.cXlXlX<XL.a. .Y.fXcXfX;XgXdXgXgX%XP.T.P.M.n.P.:.n.J.p.E.]..Xk.s.j.E.`.;X;X*.X.i..XoX].@XQ.) R Y U I F ",
"J L L L Y L Y Y U R ) ..dXlXlXcXlX!.}._.!.lXcXfXgXgXgXgXgXcX<XfX1XT.P.P.T.;X;X!. X.Xd.@./.oX}._.<XlX;X>.y..XoX]..X:X7.T ' Y U I ",
"L L L L Y Y L E T _ ) L.fXcXcXlXlX~.oX}.%XfXcXlXgXxXgXgXcXgXgXgXfXgXfXgXfXdX!._.h.>.} f..XoX}.!.lXlXcX%X=.'.oXoXoX3XL.2.' R Y Y ",
"Y L L E E E Y E _ 2.t.=XlXcXcXcXlX:X{.@X'.;XcXlXsXdXgXgXgXgXgXgXgX<X;XgXgXT.K.=.[ X.o.).OXoX{.>XcXvXlX9XM.W.+X.XoX+X<X8.' R Y Y ",
"L L Y Y E Y R ' 3.7.-XsXcXlXlXcXlX;X[.'.oXE.%XlXgXT.>XfXgXgXfXsX;XT.dXgXfX>XP.#. .X.i.oXoXoX_.1XcXlXcXfXI.y.oXoX].oX4X!.2.R U I ",
"L L I E R ] ] ' 2.U.MX,XlXxXcXlX,X>X!.`.OX/.>.I.gXdXP.P.P.P.P.P.=XgXgXcX<XP.b.m. .O.^.oXoX.X&XlXcXcXcXcX!.=.].].#XoX@XzXt._ U U ",
"E Y E ] ] w.] ' t.kX-X>XxXxXcXcX%X%XE.`.OX).>.$.T.fXfXT.U.P.T.dXgXgXfXT.P.n.b.m.*.s.`.OXoX[.<XcXcXcXfXcXU. .^.oXoXoX.X7XdX7.U U ",
"E E ] ] 9.q.e.t.,X,X:X%XxXxXxXzX<XJ.s.{.@X|.>.b.A.S.dXlXgXgXgXgXdX=XP.n.n.m.A.N.a.E.}.oX}.[.lXcXcXcXcXcXU.o.y.OXoXoXXX+XbXU.T U ",
"E R ] ] q.e.8.%X-X!.U.$XcXcXxXxXlXU.<.}.oXoX1.S.0XD.S.-XgXgXsXT.P.n.B.n.m.Z.G.A.^./.}.OX[.!.dXcXcXcXcXcXP.o.o.`.oXoXoXoX5XMXt.T ",
"] ] ] e.6.r.I.rX$XS.G.R.xXxXxXcXcX;XM.{.OXoXM.yXwXG.F.A.Y.B.n.-.n.n.b.m.D.G.wX=X_._.}.@XK.I.cXcXxXxXcXlXY.M. .a.oXOXoXoX{.9XdX7.",
"] ] e.] 8.I.-X$XG.G.G.Y.xXxXcXxXcXfXM.{.OX@XI.mXaXH.F.F.A.m.b.b.b.m.Z.F.F.wXCX-X!._.@X[.p.>XcXxXxXxXxXlXR.H.R.M.`.@XoXoX'.~.BX;X",
"e.] 4.t.Q.:X=XH.F.F.F.Y.gXxXxXxXxXxXJ.}.@XXXQ.VXZXwXF.F.C.z.c.v.l.c.A.H.eXCXFX-X_.{.oXL.J.fXcXcXcXcXxXlXR.D.R.wX%XXX@XoXoX/.2XMX",
"] i.%X5X2X[.*XS.F.F.G.A.dXxXxXxXxXxXQ.{.2XXXR.ZXAXaXF.Z.z.X : < > > Z.aXZXAXAX-X!.}.}.<.P.dXcXxXxXxXxXgXY.F.G.R.eX&X|.oXoX|.W.8X",
"E.6X#XoXoX[.rXH.D.H.G.D.sXxXMXxXxXxXI.oX2X~.*XDXFXVXF.A.v.- X X X < H.AXAXAXZX&X~.@X!.Y.P.dXcXcXMXxXxXgXD.G.G.G.H.yX~.oX.X+X_._.",
"5X'.^.oXOX_.*XaXD.G.0XF.=XxXxXxXxXrXQ.@X3X&XeXFXmXuXmXwXZ., X - > l.uXVXAXFXAX$X~.@X-XtXrX,XMXxXcXxXMXgXD.G.G.G.G.H.-XXX+XoXoXE.",
"}.j.'.+XoX}.$XiXyXD.0X0X*XxXxXdXrXiX$X2X4XQ.wXaXiXFXFXjXuX3 > > , A.VXaXAXAXAXQ.:X:XkXhXhXpXsXxXMXxXxXdXF.0X0XF.D.pXtX_.+X.XXX|.",
"j.(.oXoXoX'.I.aXaXwXF.0XR.dXrXuXiXmX&X4X2X=XwXeXjXVXAXAXAXc., , 3 uXZXVXjXAXZXV.2X;XZXCXyXnXmXsXgXxXxXsXF.F.F.*XmXZXS.g.+X+X+X+X",
"g.oXoX.X.Xs.=.aXaXaXwXF.R.uXiXaXmXAX-X@XoXrXZXDXVXjXuXiXAXZ., , l.ZXAXAXaXVXmX!.2X=XaXCXiXmXhXmXpXdXdX=XF.wXiXAXmXuX$X>.`.oXoX.X",
"|.oXoX.Xj.+.*.$XAXaXaXiXaXjXZXFXDXZX$X2X[.eXFXGXFXFXAXaXFX0X, , c.AXuXuXiXwXrX:X[.eXaXVXeXhXCXaXCXVXpXuXjXZXCXiXpXZXN.O.u.]..XoX",
"|..X+X).y.X.*.wXZXAXVXhXAXFXGXGXFXeXV.2X~.wXVXFXFXAXuXjXAXF., , v.AXaXVXZXmX*XXX&XAXCXjXmXyXAXAXhXhXVXVXaXiXiXCXSXnX;.+.O.h..X X",
"+X|.|.f.O.X.:.yXmXFXGXFXFXFXGXGXVXwX~.3X&XeXaXaXuXuXyXAXAXZ., , C.AXjXVXFXSX-X2X,XFXiXaXhXhXaXAXSXAXVXaXVXAXGXGXAX*X*.o.X.@.). X",
" X X(.@.O.X.n.yXVXFXAXFXGXFXGXAXeXiX&X2X&XaXAXuXVXjXjXAXZXc., , c.ZXVXwXVXSX&X&XsXaXeXmXyXhXVXaXAXGXGXGXGXGXAXFXAXN.o.O.| O.d.].",
" X Xs.| | | *.*XaXAXFXFXFXFXFXuXVXeX!.{.-XAXAXjXFXjXjXAXVXl., , c.ZXAXyXyX*X&X~.$XwXhXuXwXpXAXiXwXjXFXGXGXGXFXAXaXY.O.| | | 8.k."
};
